<?xml version="1.0" standalone="no"?>
<!DOCTYPE svg PUBLIC "-//W3C//DTD SVG 20010904//EN"
 "http://www.w3.org/TR/2001/REC-SVG-20010904/DTD/svg10.dtd">
<svg version="1.0" xmlns="http://www.w3.org/2000/svg"
 width="200.000000pt" height="200.000000pt" viewBox="0 0 200.000000 200.000000"
 preserveAspectRatio="xMidYMid meet">
<metadata>
Created by potrace 1.14, written by Peter Selinger 2001-2017
</metadata>
<g transform="translate(0.000000,200.000000) scale(0.100000,-0.100000)"
fill="#000000" stroke="none">
<path d="M565 1803 c-42 -22 -65 -43 -83 -78 -42 -82 -32 -165 29 -226 36 -36
39 -43 33 -75 l-6 -34 -28 42 c-49 77 -190 192 -210 172 -5 -5 -17 -38 -26
-74 -26 -102 -3 -238 55 -319 l19 -26 -61 3 c-67 4 -137 -12 -137 -31 0 -24
56 -102 100 -139 46 -40 115 -68 166 -68 32 0 32 -1 23 -32 -21 -74 -7 -156
37 -215 29 -39 33 -89 7 -78 -59 25 -73 27 -105 21 -24 -4 -47 -19 -67 -42
-26 -29 -31 -43 -31 -87 0 -63 25 -120 76 -176 84 -93 183 -120 272 -73 44 23
78 26 156 16 35 -5 46 -11 46 -25 0 -19 44 -59 65 -59 7 0 23 8 36 19 18 14
46 19 110 23 65 3 95 10 123 26 50 30 164 31 227 2 118 -53 240 5 305 144 15
33 24 70 24 103 0 44 -5 58 -31 87 -45 51 -85 56 -171 21 -29 -12 -22 38 12
87 67 96 53 232 -35 353 -13 19 -8 30 72 150 75 113 90 143 114 230 33 117 36
145 13 145 -23 0 -185 -155 -208 -199 l-20 -36 -11 50 c-11 50 -11 50 22 81
125 119 48 334 -120 334 -55 0 -79 -10 -122 -51 l-31 -29 -59 22 c-83 30 -208
29 -288 -2 l-59 -22 -31 30 c-18 17 -45 36 -60 41 -41 16 -107 13 -142 -6z
m557 -83 c74 -23 159 -80 206 -139 42 -52 92 -158 92 -194 0 -33 -41 -161 -70
-217 -39 -77 -217 -136 -385 -127 -188 10 -313 97 -375 263 -19 53 -19 54 0
116 73 236 308 367 532 298z m-437 -49 c3 -5 -4 -12 -14 -16 -11 -3 -32 -20
-46 -36 l-25 -31 0 36 c0 23 6 39 18 45 22 13 59 14 67 2z m698 -3 c16 -13 35
-68 22 -68 -16 0 -95 62 -90 71 9 13 48 11 68 -3z m66 -442 c-50 -81 -93 -145
-96 -142 -5 4 22 49 154 259 14 22 26 37 29 34 3 -2 -37 -70 -87 -151z m-171
-273 c-74 -117 -67 -107 -72 -102 -7 7 114 199 124 199 5 0 -18 -44 -52 -97z
m-378 -72 c63 -15 156 -13 218 3 29 7 52 9 52 4 0 -21 -21 -46 -44 -52 -13 -3
-38 -22 -56 -43 -30 -34 -32 -40 -27 -91 6 -54 5 -56 -53 -143 -33 -48 -69
-90 -80 -94 -11 -3 -25 -15 -30 -26 -11 -19 -11 -19 -53 2 -54 27 -144 94
-156 117 -8 16 -1 17 82 17 75 0 99 4 127 21 48 28 80 78 80 127 0 53 -56 111
-117 121 -40 7 -41 9 -31 32 7 15 17 23 27 20 9 -3 36 -10 61 -15z m174 -288
c-64 -99 -87 -133 -91 -129 -6 5 91 156 101 156 4 0 0 -12 -10 -27z m235 -45
c-32 -44 -90 -87 -148 -109 -30 -11 -58 -18 -62 -17 -5 2 13 37 39 78 l48 75
71 0 71 0 -19 -27z m-864 -22 c67 -28 119 -138 83 -174 -34 -34 -124 11 -159
79 -29 58 -16 96 39 108 1 1 18 -5 37 -13z m1199 -28 c13 -36 -24 -112 -66
-138 -46 -28 -82 -26 -107 6 l-21 27 27 49 c51 93 142 124 167 56z m-649 -93
c14 -13 25 -34 25 -47 0 -19 -3 -18 -18 12 -11 24 -28 39 -52 47 -34 11 -34
12 -7 12 17 1 38 -9 52 -24z"/>
<path d="M765 1496 c-71 -31 -115 -122 -95 -198 23 -83 91 -119 158 -84 57 30
122 119 122 168 0 37 -34 90 -71 110 -40 21 -72 22 -114 4z m121 -98 c19 -23
19 -23 -2 -5 -11 9 -29 17 -39 17 -27 0 -55 -30 -55 -59 0 -31 8 -44 35 -59
11 -6 15 -12 9 -12 -26 0 -57 37 -57 68 0 65 70 96 109 50z m-31 -26 c0 -18
-20 -15 -23 4 -3 10 1 15 10 12 7 -3 13 -10 13 -16z"/>
<path d="M1119 1487 c-94 -63 -83 -180 24 -258 75 -54 149 -32 182 56 31 80
-5 172 -79 206 -54 25 -86 24 -127 -4z m84 -79 c9 -7 20 -27 23 -45 5 -26 1
-37 -19 -57 -15 -14 -34 -26 -44 -26 -11 1 -6 6 14 15 36 15 48 42 34 78 -14
35 -53 45 -89 22 l-27 -18 19 21 c21 24 63 29 89 10z m-23 -38 c0 -11 -4 -20
-10 -20 -5 0 -10 9 -10 20 0 11 5 20 10 20 6 0 10 -9 10 -20z"/>
<path d="M948 1249 c-14 -6 -29 -16 -32 -24 -6 -18 40 -75 61 -75 13 0 13 -3
3 -15 -17 -21 -48 -19 -62 5 -17 26 -30 26 -26 -1 2 -12 15 -31 30 -42 23 -17
31 -19 53 -9 19 9 32 9 47 1 28 -15 65 -3 84 27 13 19 14 28 5 37 -8 8 -15 6
-27 -11 -17 -24 -46 -29 -62 -9 -8 10 -4 16 19 26 57 25 61 72 7 90 -37 13
-64 13 -100 0z m42 -23 c0 -2 -9 -6 -20 -9 -11 -3 -20 -1 -20 4 0 5 9 9 20 9
11 0 20 -2 20 -4z"/>
</g>
</svg>
